<svg width="470px" height="84px" viewBox="1553 178 470 84" version="1.1" xmlns="http://www.w3.org/2000/svg" xmlns:xlink="http://www.w3.org/1999/xlink">
    <!-- Generator: Sketch 3.7.1 (28215) - http://www.bohemiancoding.com/sketch -->
    <desc>Created with Sketch.</desc>
    <defs></defs>
    <g id="Group" stroke="none" stroke-width="1" fill="none" fill-rule="evenodd" transform="translate(1553.000000, 178.000000)">
        <rect id="Rectangle-path" fill="#F26B21" x="0.752" y="33.739" width="468.496" height="49.557"></rect>
        <g id="Shape" fill="#231F20">
            <path d="M39.461,33.833 L39.461,58.845 L29.426,58.845 L29.426,35.456 C29.426,30.292 25.737,26.898 20.129,26.898 C14.524,26.898 10.832,30.292 10.832,35.456 L10.832,58.845 L0.799,58.845 L0.799,19.076 L10.463,19.076 L10.611,24.167 C13.636,20.33 18.285,18.337 23.597,18.337 C33.115,18.337 39.461,24.536 39.461,33.833"></path>
            <path d="M78.146,42.245 C75.564,41.727 72.982,41.433 70.619,41.433 C65.971,41.433 62.873,43.646 62.873,47.039 C62.873,50.288 65.012,52.427 69.07,52.427 C73.719,52.426 78.146,48.664 78.146,42.245 L78.146,42.245 Z M88.18,58.846 L78.516,58.846 L78.368,53.164 C75.638,57.296 71.061,59.582 66.194,59.582 C58.003,59.582 52.469,54.64 52.469,47.261 C52.469,39.587 59.182,34.57 69.365,34.57 C72.095,34.57 75.121,34.864 78.146,35.455 L78.146,26.97 L54.976,26.97 L54.976,19.075 L88.179,19.075 L88.179,58.846 L88.18,58.846 Z"></path>
            <path d="M167.113,33.833 L167.113,58.845 L157.078,58.845 L157.078,35.456 C157.078,30.292 153.832,26.898 148.887,26.898 C144.02,26.898 140.774,30.292 140.774,35.456 L140.774,58.845 L130.739,58.845 L130.739,35.456 C130.739,30.292 127.491,26.898 122.55,26.898 C117.681,26.898 114.433,30.292 114.433,35.456 L114.433,58.845 L104.4,58.845 L104.4,19.076 L114.064,19.076 L114.212,23.798 C117.015,20.183 121.222,18.338 126.093,18.338 C131.329,18.338 135.607,20.552 138.116,24.389 C140.995,20.404 145.643,18.338 150.954,18.338 C160.621,18.337 167.113,24.536 167.113,33.833"></path>
            <path d="M192.908,58.846 L182.873,58.846 L182.873,19.076 L192.908,19.076 L192.908,58.846 L192.908,58.846 Z M181.914,6.68 C181.914,3.214 184.424,0.704 187.891,0.704 C191.358,0.704 193.793,3.213 193.793,6.68 C193.793,10.148 191.357,12.583 187.891,12.583 C184.425,12.583 181.914,10.148 181.914,6.68 L181.914,6.68 Z"></path>
        </g>
        <polygon id="Shape" fill="#231F20" points="226.242 21.733 221.078 25.495 217.242 19.887 213.479 25.495 208.238 21.733 212.52 16.345 205.951 14.427 208.018 8.378 214.291 10.665 214.068 4.245 220.414 4.245 220.266 10.665 226.613 8.378 228.604 14.427 222.037 16.345"></polygon>
        <g transform="translate(239.000000, 10.000000)" id="Shape" fill="#231F20">
            <path d="M37.947,48.846 L0.906,48.846 L0.906,42.279 L20.386,26.268 C23.042,24.202 27.173,20.661 27.173,16.381 C27.173,12.249 24.15,9.519 19.722,9.519 C14.851,9.519 11.679,12.84 11.679,17.783 L1.423,16.824 C1.423,7.233 8.653,0.962 19.425,0.962 C30.198,0.962 37.282,6.789 37.282,15.57 C37.282,24.202 31.6,28.703 25.403,33.499 L16.253,40.582 L37.946,40.582 L37.946,48.846 L37.947,48.846 Z"></path>
            <path d="M77.721,25.234 C77.721,15.79 74.403,9.518 69.459,9.518 C64.515,9.518 61.121,15.79 61.121,25.234 C61.121,34.678 64.516,40.95 69.459,40.95 C74.402,40.95 77.721,34.678 77.721,25.234 M50.35,25.234 C50.35,10.7 58.022,0.961 69.459,0.961 C80.822,0.961 88.494,10.7 88.494,25.234 C88.494,39.844 80.822,49.583 69.459,49.583 C58.021,49.583 50.35,39.844 50.35,25.234"></path>
        </g>
        <polygon id="Shape" fill="#231F20" points="356.086 11.698 356.086 58.846 346.051 58.846 346.051 19.887 338.082 19.887 338.082 11.698"></polygon>
        <polygon id="Shape" fill="#231F20" points="388.604 66.961 378.936 64.379 393.84 19.887 370.303 19.887 370.303 11.698 407.27 11.698"></polygon>
    </g>
</svg>