<svg width="470" height="84" viewBox="1553 178 470 84" xmlns="http://www.w3.org/2000/svg"><g fill="none" fill-rule="evenodd"><path fill="#F26B21" d="M1553.752 211.739h468.496v49.557h-468.496z"/><g fill="#231F20"><path d="M1592.461 211.833v25.012h-10.035v-23.389c0-5.164-3.689-8.558-9.297-8.558-5.605 0-9.297 3.394-9.297 8.558v23.389h-10.033v-39.769h9.664l.148 5.091c3.025-3.837 7.674-5.83 12.986-5.83 9.518 0 15.864 6.199 15.864 15.496M1631.146 220.245c-2.582-.518-5.164-.812-7.527-.812-4.648 0-7.746 2.213-7.746 5.606 0 3.249 2.139 5.388 6.197 5.388 4.649-.001 9.076-3.763 9.076-10.182zm10.034 16.601h-9.664l-.148-5.682c-2.73 4.132-7.307 6.418-12.174 6.418-8.191 0-13.725-4.942-13.725-12.321 0-7.674 6.713-12.691 16.896-12.691 2.73 0 5.756.294 8.781.885v-8.485h-23.17v-7.895h33.203v39.771h.001zM1720.113 211.833v25.012h-10.035v-23.389c0-5.164-3.246-8.558-8.191-8.558-4.867 0-8.113 3.394-8.113 8.558v23.389h-10.035v-23.389c0-5.164-3.248-8.558-8.189-8.558-4.869 0-8.117 3.394-8.117 8.558v23.389H1657.4v-39.769h9.664l.148 4.722c2.803-3.615 7.01-5.46 11.881-5.46 5.236 0 9.514 2.214 12.023 6.051 2.879-3.985 7.527-6.051 12.838-6.051 9.667-.001 16.159 6.198 16.159 15.495M1745.908 236.846h-10.035v-39.77h10.035v39.77zm-10.994-52.166c0-3.466 2.51-5.976 5.977-5.976 3.467 0 5.902 2.509 5.902 5.976 0 3.468-2.436 5.903-5.902 5.903s-5.977-2.435-5.977-5.903z"/></g><path fill="#231F20" d="M1779.242 199.733l-5.164 3.762-3.836-5.608-3.763 5.608-5.241-3.762 4.282-5.388-6.569-1.918 2.067-6.049 6.273 2.287-.223-6.42h6.346l-.148 6.42 6.347-2.287 1.991 6.049-6.567 1.918z"/><g fill="#231F20"><path d="M1829.947 236.846h-37.041v-6.567l19.48-16.011c2.656-2.066 6.787-5.607 6.787-9.887 0-4.132-3.023-6.862-7.451-6.862-4.871 0-8.043 3.321-8.043 8.264l-10.256-.959c0-9.591 7.23-15.862 18.002-15.862 10.773 0 17.857 5.827 17.857 14.608 0 8.632-5.682 13.133-11.879 17.929l-9.15 7.083h21.693v8.264h.001zM1869.721 213.234c0-9.444-3.318-15.716-8.262-15.716-4.944 0-8.338 6.272-8.338 15.716 0 9.444 3.395 15.716 8.338 15.716s8.262-6.272 8.262-15.716m-27.371 0c0-14.534 7.672-24.273 19.109-24.273 11.363 0 19.035 9.739 19.035 24.273 0 14.61-7.672 24.349-19.035 24.349-11.438 0-19.109-9.739-19.109-24.349"/></g><path fill="#231F20" d="M1909.086 189.698v47.148h-10.035v-38.959h-7.969v-8.189zM1941.604 244.961l-9.668-2.582 14.904-44.492h-23.537v-8.189h36.967z"/></g></svg>