<svg width="500" height="500" viewBox="0 0 500 500" xmlns="http://www.w3.org/2000/svg" xmlns:xlink="http://www.w3.org/1999/xlink"><title>raster</title><defs><path id="a" d="M.836.598h498.33v498.805H.836z"/><path id="c" d="M.836.598h498.33v498.805H.836z"/><path id="e" d="M.836.598h498.33v498.805H.836z"/><path id="g" d="M.836.598h498.33v498.805H.836z"/></defs><g fill="none" fill-rule="evenodd"><mask id="b" fill="#fff"><use xlink:href="#a"/></mask><path d="M250.011 128.832c68.8.009 124.571 57.421 124.571 128.245 0-70.824 55.772-128.236 124.574-128.245-68.802 0-124.574-57.412-124.574-128.234 0 70.822-55.772 128.234-124.571 128.234" fill="#404041" mask="url(#b)"/><mask id="d" fill="#fff"><use xlink:href="#c"/></mask><path d="M249.991 128.832c-68.804 0-124.573-57.412-124.573-128.234 0 70.822-55.774 128.234-124.574 128.234 68.8.009 124.574 57.421 124.574 128.245 0-70.824 55.77-128.236 124.573-128.245" fill="#404041" mask="url(#d)"/><g><mask id="f" fill="#fff"><use xlink:href="#e"/></mask><path d="M374.582 257.077c0 70.823-55.776 128.236-124.582 128.236 64.157 0 116.991 49.918 123.83 114.09h1.507c6.837-64.17 59.673-114.09 123.829-114.09-68.807-.001-124.584-57.414-124.584-128.236" fill="#404041" mask="url(#f)"/></g><g><mask id="h" fill="#fff"><use xlink:href="#g"/></mask><path d="M125.418 257.077c0 70.823-55.774 128.236-124.582 128.236 64.159 0 116.989 49.918 123.834 114.09h1.502c6.84-64.17 59.67-114.09 123.83-114.09-68.806-.001-124.584-57.414-124.584-128.236" fill="#404041" mask="url(#h)"/></g></g></svg>